<?xml version="1.0" encoding="UTF-8" standalone="no"?>
<!-- Created with Inkscape (http://www.inkscape.org/) -->
<svg
   xmlns:dc="http://purl.org/dc/elements/1.1/"
   xmlns:cc="http://creativecommons.org/ns#"
   xmlns:rdf="http://www.w3.org/1999/02/22-rdf-syntax-ns#"
   xmlns:svg="http://www.w3.org/2000/svg"
   xmlns="http://www.w3.org/2000/svg"
   xmlns:xlink="http://www.w3.org/1999/xlink"
   xmlns:sodipodi="http://sodipodi.sourceforge.net/DTD/sodipodi-0.dtd"
   xmlns:inkscape="http://www.inkscape.org/namespaces/inkscape"
   width="744.09448819"
   height="1052.3622047"
   id="svg2"
   sodipodi:version="0.32"
   inkscape:version="0.46"
   sodipodi:docname="slider.svg"
   inkscape:output_extension="org.inkscape.output.svg.inkscape"
   inkscape:export-filename="/Users/mxn/slider_handle.png"
   inkscape:export-xdpi="90"
   inkscape:export-ydpi="90">
  <defs
     id="defs4">
    <linearGradient
       id="linearGradient3205">
      <stop
         style="stop-color:#472800;stop-opacity:1;"
         offset="0"
         id="stop3207" />
      <stop
         style="stop-color:#975100;stop-opacity:1;"
         offset="1"
         id="stop3209" />
    </linearGradient>
    <linearGradient
       id="linearGradient3199">
      <stop
         id="stop3201"
         offset="0"
         style="stop-color:#302c30;stop-opacity:1;" />
      <stop
         id="stop3203"
         offset="1"
         style="stop-color:#363636;stop-opacity:1;" />
    </linearGradient>
    <linearGradient
       id="linearGradient3193">
      <stop
         style="stop-color:#dcc100;stop-opacity:1;"
         offset="0"
         id="stop3195" />
      <stop
         style="stop-color:#714900;stop-opacity:1;"
         offset="1"
         id="stop3197" />
    </linearGradient>
    <linearGradient
       id="linearGradient3187">
      <stop
         id="stop3189"
         offset="0"
         style="stop-color:#dcc100;stop-opacity:1;" />
      <stop
         id="stop3191"
         offset="1"
         style="stop-color:#714900;stop-opacity:1;" />
    </linearGradient>
    <linearGradient
       id="linearGradient3163">
      <stop
         style="stop-color:#dcc100;stop-opacity:1;"
         offset="0"
         id="stop3165" />
      <stop
         style="stop-color:#714900;stop-opacity:1;"
         offset="1"
         id="stop3167" />
    </linearGradient>
    <inkscape:perspective
       sodipodi:type="inkscape:persp3d"
       inkscape:vp_x="0 : 526.18109 : 1"
       inkscape:vp_y="0 : 1000 : 0"
       inkscape:vp_z="744.09448 : 526.18109 : 1"
       inkscape:persp3d-origin="372.04724 : 350.78739 : 1"
       id="perspective10" />
    <linearGradient
       inkscape:collect="always"
       xlink:href="#linearGradient3163"
       id="linearGradient3169"
       x1="193.78572"
       y1="588.07648"
       x2="231.92857"
       y2="588.07648"
       gradientUnits="userSpaceOnUse"
       spreadMethod="pad"
       gradientTransform="matrix(16.434188,0,0,0.1051962,-2945.7723,-141.86344)" />
    <linearGradient
       inkscape:collect="always"
       xlink:href="#linearGradient3205"
       id="linearGradient3241"
       x1="28.596874"
       y1="418.25656"
       x2="142.29138"
       y2="418.25656"
       gradientUnits="userSpaceOnUse"
       spreadMethod="pad"
       gradientTransform="matrix(0.4652221,0,0,2.1821666,-484.03272,-833.10257)" />
  </defs>
  <sodipodi:namedview
     id="base"
     pagecolor="#ffffff"
     bordercolor="#666666"
     borderopacity="1.0"
     gridtolerance="10000"
     guidetolerance="10"
     objecttolerance="10"
     inkscape:pageopacity="0.0"
     inkscape:pageshadow="2"
     inkscape:zoom="1"
     inkscape:cx="204.93481"
     inkscape:cy="695.73296"
     inkscape:document-units="px"
     inkscape:current-layer="layer1"
     showgrid="false"
     inkscape:window-width="1028"
     inkscape:window-height="701"
     inkscape:window-x="0"
     inkscape:window-y="22"
     inkscape:snap-global="true">
    <inkscape:grid
       type="xygrid"
       id="grid3756"
       visible="true"
       enabled="true" />
  </sodipodi:namedview>
  <metadata
     id="metadata7">
    <rdf:RDF>
      <cc:Work
         rdf:about="">
        <dc:format>image/svg+xml</dc:format>
        <dc:type
           rdf:resource="http://purl.org/dc/dcmitype/StillImage" />
      </cc:Work>
    </rdf:RDF>
  </metadata>
  <g
     inkscape:label="Layer 1"
     inkscape:groupmode="layer"
     id="layer1">
    <rect
       style="opacity:1;fill:url(#linearGradient3169);fill-opacity:1;stroke:#660000;stroke-width:9.58733273;stroke-linejoin:round;stroke-miterlimit:4;stroke-dasharray:none;stroke-dashoffset:0;stroke-opacity:1"
       id="rect2383"
       width="610.41266"
       height="60.412666"
       x="247.15582"
       y="-110.20633"
       inkscape:transform-center-y="313.42339"
       inkscape:transform-center-x="30.258936"
       transform="matrix(0,1,-1,0,0,0)"
       ry="14.978621" />
    <rect
       style="opacity:1;fill:url(#linearGradient3241);fill-opacity:1;stroke:#2c0000;stroke-width:6.06920528;stroke-linejoin:round;stroke-miterlimit:4;stroke-dasharray:none;stroke-dashoffset:0;stroke-opacity:1"
       id="rect3233"
       width="48.930794"
       height="128.9308"
       x="-469.32755"
       y="18.034603"
       transform="matrix(0,-1,1,0,0,0)"
       ry="14.48571" />
    <g
       id="g3852"
       transform="translate(0,-4)">
      <path
         transform="matrix(0.4949137,0,0,0.4949137,12.49848,217.0404)"
         d="M 49.285713,442.18362 A 6.6071429,6.6071429 0 1 1 36.071427,442.18362 A 6.6071429,6.6071429 0 1 1 49.285713,442.18362 z"
         sodipodi:ry="6.6071429"
         sodipodi:rx="6.6071429"
         sodipodi:cy="442.18362"
         sodipodi:cx="42.67857"
         id="path3754"
         style="fill:#0c0200;fill-opacity:0.275;stroke:#2c0000;stroke-width:1.41732287;stroke-linejoin:round;stroke-miterlimit:4;stroke-dasharray:none;stroke-dashoffset:0;stroke-opacity:1"
         sodipodi:type="arc" />
      <path
         transform="matrix(0.4949137,0,0,0.4949137,23.360542,217.0404)"
         d="M 49.285713,442.18362 A 6.6071429,6.6071429 0 1 1 36.071427,442.18362 A 6.6071429,6.6071429 0 1 1 49.285713,442.18362 z"
         sodipodi:ry="6.6071429"
         sodipodi:rx="6.6071429"
         sodipodi:cy="442.18362"
         sodipodi:cx="42.67857"
         id="path3776"
         style="fill:#0c0200;fill-opacity:0.275;stroke:#2c0000;stroke-width:1.41732287;stroke-linejoin:round;stroke-miterlimit:4;stroke-dasharray:none;stroke-dashoffset:0;stroke-opacity:1"
         sodipodi:type="arc" />
      <path
         sodipodi:type="arc"
         style="fill:#0c0200;fill-opacity:0.275;stroke:#2c0000;stroke-width:1.41732287;stroke-linejoin:round;stroke-miterlimit:4;stroke-dasharray:none;stroke-dashoffset:0;stroke-opacity:1"
         id="path3778"
         sodipodi:cx="42.67857"
         sodipodi:cy="442.18362"
         sodipodi:rx="6.6071429"
         sodipodi:ry="6.6071429"
         d="M 49.285713,442.18362 A 6.6071429,6.6071429 0 1 1 36.071427,442.18362 A 6.6071429,6.6071429 0 1 1 49.285713,442.18362 z"
         transform="matrix(0.4949137,0,0,0.4949137,34.222577,217.0404)" />
      <path
         transform="matrix(0.4949137,0,0,0.4949137,45.084645,217.0404)"
         d="M 49.285713,442.18362 A 6.6071429,6.6071429 0 1 1 36.071427,442.18362 A 6.6071429,6.6071429 0 1 1 49.285713,442.18362 z"
         sodipodi:ry="6.6071429"
         sodipodi:rx="6.6071429"
         sodipodi:cy="442.18362"
         sodipodi:cx="42.67857"
         id="path3780"
         style="fill:#0c0200;fill-opacity:0.275;stroke:#2c0000;stroke-width:1.41732287;stroke-linejoin:round;stroke-miterlimit:4;stroke-dasharray:none;stroke-dashoffset:0;stroke-opacity:1"
         sodipodi:type="arc" />
      <path
         sodipodi:type="arc"
         style="fill:#0c0200;fill-opacity:0.275;stroke:#2c0000;stroke-width:1.41732287;stroke-linejoin:round;stroke-miterlimit:4;stroke-dasharray:none;stroke-dashoffset:0;stroke-opacity:1"
         id="path3782"
         sodipodi:cx="42.67857"
         sodipodi:cy="442.18362"
         sodipodi:rx="6.6071429"
         sodipodi:ry="6.6071429"
         d="M 49.285713,442.18362 A 6.6071429,6.6071429 0 1 1 36.071427,442.18362 A 6.6071429,6.6071429 0 1 1 49.285713,442.18362 z"
         transform="matrix(0.4949137,0,0,0.4949137,55.946678,217.0404)" />
      <path
         transform="matrix(0.4949137,0,0,0.4949137,66.808744,217.0404)"
         d="M 49.285713,442.18362 A 6.6071429,6.6071429 0 1 1 36.071427,442.18362 A 6.6071429,6.6071429 0 1 1 49.285713,442.18362 z"
         sodipodi:ry="6.6071429"
         sodipodi:rx="6.6071429"
         sodipodi:cy="442.18362"
         sodipodi:cx="42.67857"
         id="path3784"
         style="fill:#0c0200;fill-opacity:0.275;stroke:#2c0000;stroke-width:1.41732287;stroke-linejoin:round;stroke-miterlimit:4;stroke-dasharray:none;stroke-dashoffset:0;stroke-opacity:1"
         sodipodi:type="arc" />
      <path
         transform="matrix(0.4949137,0,0,0.4949137,77.670777,217.0404)"
         d="M 49.285713,442.18362 A 6.6071429,6.6071429 0 1 1 36.071427,442.18362 A 6.6071429,6.6071429 0 1 1 49.285713,442.18362 z"
         sodipodi:ry="6.6071429"
         sodipodi:rx="6.6071429"
         sodipodi:cy="442.18362"
         sodipodi:cx="42.67857"
         id="path3818"
         style="fill:#0c0200;fill-opacity:0.275;stroke:#2c0000;stroke-width:1.41732287;stroke-linejoin:round;stroke-miterlimit:4;stroke-dasharray:none;stroke-dashoffset:0;stroke-opacity:1"
         sodipodi:type="arc" />
      <path
         sodipodi:type="arc"
         style="fill:#0c0200;fill-opacity:0.275;stroke:#2c0000;stroke-width:1.41732287;stroke-linejoin:round;stroke-miterlimit:4;stroke-dasharray:none;stroke-dashoffset:0;stroke-opacity:1"
         id="path3820"
         sodipodi:cx="42.67857"
         sodipodi:cy="442.18362"
         sodipodi:rx="6.6071429"
         sodipodi:ry="6.6071429"
         d="M 49.285713,442.18362 A 6.6071429,6.6071429 0 1 1 36.071427,442.18362 A 6.6071429,6.6071429 0 1 1 49.285713,442.18362 z"
         transform="matrix(0.4949137,0,0,0.4949137,88.532853,217.0404)" />
      <path
         sodipodi:type="arc"
         style="fill:#0c0200;fill-opacity:0.275;stroke:#2c0000;stroke-width:1.41732287;stroke-linejoin:round;stroke-miterlimit:4;stroke-dasharray:none;stroke-dashoffset:0;stroke-opacity:1"
         id="path3828"
         sodipodi:cx="42.67857"
         sodipodi:cy="442.18362"
         sodipodi:rx="6.6071429"
         sodipodi:ry="6.6071429"
         d="M 49.285713,442.18362 A 6.6071429,6.6071429 0 1 1 36.071427,442.18362 A 6.6071429,6.6071429 0 1 1 49.285713,442.18362 z"
         transform="matrix(0.4949137,0,0,0.4949137,99.395019,217.0404)" />
      <path
         transform="matrix(0.4949137,0,0,0.4949137,110.2571,217.0404)"
         d="M 49.285713,442.18362 A 6.6071429,6.6071429 0 1 1 36.071427,442.18362 A 6.6071429,6.6071429 0 1 1 49.285713,442.18362 z"
         sodipodi:ry="6.6071429"
         sodipodi:rx="6.6071429"
         sodipodi:cy="442.18362"
         sodipodi:cx="42.67857"
         id="path3830"
         style="fill:#0c0200;fill-opacity:0.275;stroke:#2c0000;stroke-width:1.41732287;stroke-linejoin:round;stroke-miterlimit:4;stroke-dasharray:none;stroke-dashoffset:0;stroke-opacity:1"
         sodipodi:type="arc" />
    </g>
    <g
       id="g3864"
       transform="translate(0,6)">
      <path
         sodipodi:type="arc"
         style="fill:#0c0200;fill-opacity:0.275;stroke:#2c0000;stroke-width:1.41732287;stroke-linejoin:round;stroke-miterlimit:4;stroke-dasharray:none;stroke-dashoffset:0;stroke-opacity:1"
         id="path3866"
         sodipodi:cx="42.67857"
         sodipodi:cy="442.18362"
         sodipodi:rx="6.6071429"
         sodipodi:ry="6.6071429"
         d="M 49.285713,442.18362 A 6.6071429,6.6071429 0 1 1 36.071427,442.18362 A 6.6071429,6.6071429 0 1 1 49.285713,442.18362 z"
         transform="matrix(0.4949137,0,0,0.4949137,12.49848,217.0404)" />
      <path
         sodipodi:type="arc"
         style="fill:#0c0200;fill-opacity:0.275;stroke:#2c0000;stroke-width:1.41732287;stroke-linejoin:round;stroke-miterlimit:4;stroke-dasharray:none;stroke-dashoffset:0;stroke-opacity:1"
         id="path3868"
         sodipodi:cx="42.67857"
         sodipodi:cy="442.18362"
         sodipodi:rx="6.6071429"
         sodipodi:ry="6.6071429"
         d="M 49.285713,442.18362 A 6.6071429,6.6071429 0 1 1 36.071427,442.18362 A 6.6071429,6.6071429 0 1 1 49.285713,442.18362 z"
         transform="matrix(0.4949137,0,0,0.4949137,23.360542,217.0404)" />
      <path
         transform="matrix(0.4949137,0,0,0.4949137,34.222577,217.0404)"
         d="M 49.285713,442.18362 A 6.6071429,6.6071429 0 1 1 36.071427,442.18362 A 6.6071429,6.6071429 0 1 1 49.285713,442.18362 z"
         sodipodi:ry="6.6071429"
         sodipodi:rx="6.6071429"
         sodipodi:cy="442.18362"
         sodipodi:cx="42.67857"
         id="path3870"
         style="fill:#0c0200;fill-opacity:0.275;stroke:#2c0000;stroke-width:1.41732287;stroke-linejoin:round;stroke-miterlimit:4;stroke-dasharray:none;stroke-dashoffset:0;stroke-opacity:1"
         sodipodi:type="arc" />
      <path
         sodipodi:type="arc"
         style="fill:#0c0200;fill-opacity:0.275;stroke:#2c0000;stroke-width:1.41732287;stroke-linejoin:round;stroke-miterlimit:4;stroke-dasharray:none;stroke-dashoffset:0;stroke-opacity:1"
         id="path3872"
         sodipodi:cx="42.67857"
         sodipodi:cy="442.18362"
         sodipodi:rx="6.6071429"
         sodipodi:ry="6.6071429"
         d="M 49.285713,442.18362 A 6.6071429,6.6071429 0 1 1 36.071427,442.18362 A 6.6071429,6.6071429 0 1 1 49.285713,442.18362 z"
         transform="matrix(0.4949137,0,0,0.4949137,45.084645,217.0404)" />
      <path
         transform="matrix(0.4949137,0,0,0.4949137,55.946678,217.0404)"
         d="M 49.285713,442.18362 A 6.6071429,6.6071429 0 1 1 36.071427,442.18362 A 6.6071429,6.6071429 0 1 1 49.285713,442.18362 z"
         sodipodi:ry="6.6071429"
         sodipodi:rx="6.6071429"
         sodipodi:cy="442.18362"
         sodipodi:cx="42.67857"
         id="path3874"
         style="fill:#0c0200;fill-opacity:0.275;stroke:#2c0000;stroke-width:1.41732287;stroke-linejoin:round;stroke-miterlimit:4;stroke-dasharray:none;stroke-dashoffset:0;stroke-opacity:1"
         sodipodi:type="arc" />
      <path
         sodipodi:type="arc"
         style="fill:#0c0200;fill-opacity:0.275;stroke:#2c0000;stroke-width:1.41732287;stroke-linejoin:round;stroke-miterlimit:4;stroke-dasharray:none;stroke-dashoffset:0;stroke-opacity:1"
         id="path3876"
         sodipodi:cx="42.67857"
         sodipodi:cy="442.18362"
         sodipodi:rx="6.6071429"
         sodipodi:ry="6.6071429"
         d="M 49.285713,442.18362 A 6.6071429,6.6071429 0 1 1 36.071427,442.18362 A 6.6071429,6.6071429 0 1 1 49.285713,442.18362 z"
         transform="matrix(0.4949137,0,0,0.4949137,66.808744,217.0404)" />
      <path
         sodipodi:type="arc"
         style="fill:#0c0200;fill-opacity:0.275;stroke:#2c0000;stroke-width:1.41732287;stroke-linejoin:round;stroke-miterlimit:4;stroke-dasharray:none;stroke-dashoffset:0;stroke-opacity:1"
         id="path3878"
         sodipodi:cx="42.67857"
         sodipodi:cy="442.18362"
         sodipodi:rx="6.6071429"
         sodipodi:ry="6.6071429"
         d="M 49.285713,442.18362 A 6.6071429,6.6071429 0 1 1 36.071427,442.18362 A 6.6071429,6.6071429 0 1 1 49.285713,442.18362 z"
         transform="matrix(0.4949137,0,0,0.4949137,77.670777,217.0404)" />
      <path
         transform="matrix(0.4949137,0,0,0.4949137,88.532853,217.0404)"
         d="M 49.285713,442.18362 A 6.6071429,6.6071429 0 1 1 36.071427,442.18362 A 6.6071429,6.6071429 0 1 1 49.285713,442.18362 z"
         sodipodi:ry="6.6071429"
         sodipodi:rx="6.6071429"
         sodipodi:cy="442.18362"
         sodipodi:cx="42.67857"
         id="path3880"
         style="fill:#0c0200;fill-opacity:0.275;stroke:#2c0000;stroke-width:1.41732287;stroke-linejoin:round;stroke-miterlimit:4;stroke-dasharray:none;stroke-dashoffset:0;stroke-opacity:1"
         sodipodi:type="arc" />
      <path
         transform="matrix(0.4949137,0,0,0.4949137,99.395019,217.0404)"
         d="M 49.285713,442.18362 A 6.6071429,6.6071429 0 1 1 36.071427,442.18362 A 6.6071429,6.6071429 0 1 1 49.285713,442.18362 z"
         sodipodi:ry="6.6071429"
         sodipodi:rx="6.6071429"
         sodipodi:cy="442.18362"
         sodipodi:cx="42.67857"
         id="path3882"
         style="fill:#0c0200;fill-opacity:0.275;stroke:#2c0000;stroke-width:1.41732287;stroke-linejoin:round;stroke-miterlimit:4;stroke-dasharray:none;stroke-dashoffset:0;stroke-opacity:1"
         sodipodi:type="arc" />
      <path
         sodipodi:type="arc"
         style="fill:#0c0200;fill-opacity:0.275;stroke:#2c0000;stroke-width:1.41732287;stroke-linejoin:round;stroke-miterlimit:4;stroke-dasharray:none;stroke-dashoffset:0;stroke-opacity:1"
         id="path3884"
         sodipodi:cx="42.67857"
         sodipodi:cy="442.18362"
         sodipodi:rx="6.6071429"
         sodipodi:ry="6.6071429"
         d="M 49.285713,442.18362 A 6.6071429,6.6071429 0 1 1 36.071427,442.18362 A 6.6071429,6.6071429 0 1 1 49.285713,442.18362 z"
         transform="matrix(0.4949137,0,0,0.4949137,110.2571,217.0404)" />
    </g>
  </g>
</svg>
